<mxfile host="app.diagrams.net" modified="2023-05-19T07:40:47.968Z" agent="Mozilla/5.0 (Windows NT 10.0; Win64; x64) AppleWebKit/537.36 (KHTML, like Gecko) Chrome/113.0.0.0 Safari/537.36" etag="XrsXFclEpxSaD2sTGqEl" version="21.3.2" type="github">
  <diagram name="Sayfa -1" id="nmKr-bnQf928-BZjtiRY">
    <mxGraphModel dx="1050" dy="581" grid="1" gridSize="10" guides="1" tooltips="1" connect="1" arrows="1" fold="1" page="1" pageScale="1" pageWidth="827" pageHeight="1169" math="0" shadow="0">
      <root>
        <mxCell id="0" />
        <mxCell id="1" parent="0" />
        <mxCell id="jWWWo1ZbGVVrrj1VVi9p-8" value="Üniversite&lt;br&gt;" style="html=1;whiteSpace=wrap;" vertex="1" parent="1">
          <mxGeometry x="280" y="360" width="160" height="120" as="geometry" />
        </mxCell>
        <mxCell id="jWWWo1ZbGVVrrj1VVi9p-11" value="Relation" style="endArrow=open;html=1;endSize=12;startArrow=diamondThin;startSize=14;startFill=0;edgeStyle=orthogonalEdgeStyle;rounded=0;entryX=1;entryY=0.632;entryDx=0;entryDy=0;entryPerimeter=0;" edge="1" parent="1" source="jWWWo1ZbGVVrrj1VVi9p-9" target="jWWWo1ZbGVVrrj1VVi9p-8">
          <mxGeometry relative="1" as="geometry">
            <mxPoint x="440" y="419.5" as="sourcePoint" />
            <mxPoint x="450" y="440" as="targetPoint" />
          </mxGeometry>
        </mxCell>
        <mxCell id="jWWWo1ZbGVVrrj1VVi9p-12" value="0..n" style="edgeLabel;resizable=0;html=1;align=left;verticalAlign=top;rotation=1;" connectable="0" vertex="1" parent="jWWWo1ZbGVVrrj1VVi9p-11">
          <mxGeometry x="-1" relative="1" as="geometry" />
        </mxCell>
        <mxCell id="jWWWo1ZbGVVrrj1VVi9p-13" value="1" style="edgeLabel;resizable=0;html=1;align=right;verticalAlign=top;" connectable="0" vertex="1" parent="jWWWo1ZbGVVrrj1VVi9p-11">
          <mxGeometry x="1" relative="1" as="geometry" />
        </mxCell>
        <mxCell id="jWWWo1ZbGVVrrj1VVi9p-9" value="Sınıflık&lt;br&gt;" style="html=1;whiteSpace=wrap;" vertex="1" parent="1">
          <mxGeometry x="570" y="410" width="110" height="50" as="geometry" />
        </mxCell>
        <mxCell id="jWWWo1ZbGVVrrj1VVi9p-15" value="Relation" style="endArrow=open;html=1;endSize=12;startArrow=diamondThin;startSize=14;startFill=0;edgeStyle=orthogonalEdgeStyle;rounded=0;" edge="1" parent="1" source="jWWWo1ZbGVVrrj1VVi9p-18" target="jWWWo1ZbGVVrrj1VVi9p-8">
          <mxGeometry relative="1" as="geometry">
            <mxPoint x="360" y="580" as="sourcePoint" />
            <mxPoint x="184" y="616" as="targetPoint" />
          </mxGeometry>
        </mxCell>
        <mxCell id="jWWWo1ZbGVVrrj1VVi9p-16" value="0..n" style="edgeLabel;resizable=0;html=1;align=left;verticalAlign=top;rotation=1;" connectable="0" vertex="1" parent="jWWWo1ZbGVVrrj1VVi9p-15">
          <mxGeometry x="-1" relative="1" as="geometry" />
        </mxCell>
        <mxCell id="jWWWo1ZbGVVrrj1VVi9p-17" value="1" style="edgeLabel;resizable=0;html=1;align=right;verticalAlign=top;" connectable="0" vertex="1" parent="jWWWo1ZbGVVrrj1VVi9p-15">
          <mxGeometry x="1" relative="1" as="geometry" />
        </mxCell>
        <mxCell id="jWWWo1ZbGVVrrj1VVi9p-18" value="Departman&lt;br&gt;" style="html=1;whiteSpace=wrap;" vertex="1" parent="1">
          <mxGeometry x="314" y="590" width="110" height="50" as="geometry" />
        </mxCell>
        <mxCell id="jWWWo1ZbGVVrrj1VVi9p-19" value="Relation" style="endArrow=open;html=1;endSize=12;startArrow=diamondThin;startSize=14;startFill=0;edgeStyle=orthogonalEdgeStyle;rounded=0;" edge="1" parent="1" source="jWWWo1ZbGVVrrj1VVi9p-22" target="jWWWo1ZbGVVrrj1VVi9p-8">
          <mxGeometry relative="1" as="geometry">
            <mxPoint x="-70" y="399.5" as="sourcePoint" />
            <mxPoint x="-70" y="416" as="targetPoint" />
          </mxGeometry>
        </mxCell>
        <mxCell id="jWWWo1ZbGVVrrj1VVi9p-20" value="0..n" style="edgeLabel;resizable=0;html=1;align=left;verticalAlign=top;rotation=1;" connectable="0" vertex="1" parent="jWWWo1ZbGVVrrj1VVi9p-19">
          <mxGeometry x="-1" relative="1" as="geometry" />
        </mxCell>
        <mxCell id="jWWWo1ZbGVVrrj1VVi9p-21" value="1" style="edgeLabel;resizable=0;html=1;align=right;verticalAlign=top;" connectable="0" vertex="1" parent="jWWWo1ZbGVVrrj1VVi9p-19">
          <mxGeometry x="1" relative="1" as="geometry" />
        </mxCell>
        <mxCell id="jWWWo1ZbGVVrrj1VVi9p-22" value="Çalışma Ofisi&lt;br&gt;" style="html=1;whiteSpace=wrap;" vertex="1" parent="1">
          <mxGeometry x="60" y="390" width="110" height="50" as="geometry" />
        </mxCell>
        <mxCell id="jWWWo1ZbGVVrrj1VVi9p-23" value="Relation" style="endArrow=open;html=1;endSize=12;startArrow=diamondThin;startSize=14;startFill=0;edgeStyle=orthogonalEdgeStyle;rounded=0;" edge="1" parent="1" source="jWWWo1ZbGVVrrj1VVi9p-26" target="jWWWo1ZbGVVrrj1VVi9p-22">
          <mxGeometry relative="1" as="geometry">
            <mxPoint x="184" y="259.5" as="sourcePoint" />
            <mxPoint x="184" y="276" as="targetPoint" />
          </mxGeometry>
        </mxCell>
        <mxCell id="jWWWo1ZbGVVrrj1VVi9p-24" value="0..n" style="edgeLabel;resizable=0;html=1;align=left;verticalAlign=top;rotation=1;" connectable="0" vertex="1" parent="jWWWo1ZbGVVrrj1VVi9p-23">
          <mxGeometry x="-1" relative="1" as="geometry" />
        </mxCell>
        <mxCell id="jWWWo1ZbGVVrrj1VVi9p-25" value="1" style="edgeLabel;resizable=0;html=1;align=right;verticalAlign=top;" connectable="0" vertex="1" parent="jWWWo1ZbGVVrrj1VVi9p-23">
          <mxGeometry x="1" relative="1" as="geometry" />
        </mxCell>
        <mxCell id="jWWWo1ZbGVVrrj1VVi9p-28" value="Text" style="edgeLabel;html=1;align=center;verticalAlign=middle;resizable=0;points=[];" vertex="1" connectable="0" parent="jWWWo1ZbGVVrrj1VVi9p-23">
          <mxGeometry x="0.2611" y="-4" relative="1" as="geometry">
            <mxPoint as="offset" />
          </mxGeometry>
        </mxCell>
        <mxCell id="jWWWo1ZbGVVrrj1VVi9p-33" style="edgeStyle=orthogonalEdgeStyle;rounded=0;orthogonalLoop=1;jettySize=auto;html=1;" edge="1" parent="1" source="jWWWo1ZbGVVrrj1VVi9p-26">
          <mxGeometry relative="1" as="geometry">
            <mxPoint x="540" y="205" as="targetPoint" />
          </mxGeometry>
        </mxCell>
        <mxCell id="jWWWo1ZbGVVrrj1VVi9p-35" style="edgeStyle=orthogonalEdgeStyle;rounded=0;orthogonalLoop=1;jettySize=auto;html=1;" edge="1" parent="1" source="jWWWo1ZbGVVrrj1VVi9p-26">
          <mxGeometry relative="1" as="geometry">
            <mxPoint x="420" y="130" as="targetPoint" />
          </mxGeometry>
        </mxCell>
        <mxCell id="jWWWo1ZbGVVrrj1VVi9p-26" value="Çalışan&lt;br&gt;" style="html=1;whiteSpace=wrap;" vertex="1" parent="1">
          <mxGeometry x="320" y="180" width="110" height="50" as="geometry" />
        </mxCell>
        <mxCell id="jWWWo1ZbGVVrrj1VVi9p-29" value="Relation" style="endArrow=open;html=1;endSize=12;startArrow=diamondThin;startSize=14;startFill=0;edgeStyle=orthogonalEdgeStyle;rounded=0;" edge="1" parent="1" source="jWWWo1ZbGVVrrj1VVi9p-26" target="jWWWo1ZbGVVrrj1VVi9p-8">
          <mxGeometry relative="1" as="geometry">
            <mxPoint x="324" y="285" as="sourcePoint" />
            <mxPoint x="125" y="400" as="targetPoint" />
            <Array as="points">
              <mxPoint x="375" y="330" />
              <mxPoint x="375" y="330" />
            </Array>
          </mxGeometry>
        </mxCell>
        <mxCell id="jWWWo1ZbGVVrrj1VVi9p-30" value="0..n" style="edgeLabel;resizable=0;html=1;align=left;verticalAlign=top;rotation=1;" connectable="0" vertex="1" parent="jWWWo1ZbGVVrrj1VVi9p-29">
          <mxGeometry x="-1" relative="1" as="geometry" />
        </mxCell>
        <mxCell id="jWWWo1ZbGVVrrj1VVi9p-31" value="1" style="edgeLabel;resizable=0;html=1;align=right;verticalAlign=top;" connectable="0" vertex="1" parent="jWWWo1ZbGVVrrj1VVi9p-29">
          <mxGeometry x="1" relative="1" as="geometry" />
        </mxCell>
        <mxCell id="jWWWo1ZbGVVrrj1VVi9p-32" value="Text" style="edgeLabel;html=1;align=center;verticalAlign=middle;resizable=0;points=[];" vertex="1" connectable="0" parent="jWWWo1ZbGVVrrj1VVi9p-29">
          <mxGeometry x="0.2611" y="-4" relative="1" as="geometry">
            <mxPoint as="offset" />
          </mxGeometry>
        </mxCell>
        <mxCell id="jWWWo1ZbGVVrrj1VVi9p-34" value="Profesör&lt;br&gt;" style="html=1;whiteSpace=wrap;" vertex="1" parent="1">
          <mxGeometry x="540" y="180" width="110" height="50" as="geometry" />
        </mxCell>
        <mxCell id="jWWWo1ZbGVVrrj1VVi9p-36" value="Memur&lt;br&gt;" style="html=1;whiteSpace=wrap;" vertex="1" parent="1">
          <mxGeometry x="370" y="80" width="110" height="50" as="geometry" />
        </mxCell>
      </root>
    </mxGraphModel>
  </diagram>
</mxfile>
